<?xml version="1.0" standalone="no"?>
<!DOCTYPE svg PUBLIC "-//W3C//DTD SVG 20010904//EN"
 "http://www.w3.org/TR/2001/REC-SVG-20010904/DTD/svg10.dtd">
<svg version="1.0" xmlns="http://www.w3.org/2000/svg"
 width="1400.000000pt" height="223.000000pt" viewBox="0 0 1400.000000 223.000000"
 preserveAspectRatio="xMidYMid meet">

<g transform="translate(0.000000,223.000000) scale(0.100000,-0.100000)"
fill="#ffffff" stroke="none">
<path d="M0 2196 c0 -24 5 -36 18 -40 9 -2 49 -14 87 -25 81 -23 802 -212
1145 -300 129 -33 357 -92 505 -130 1214 -318 2293 -575 2917 -696 183 -36
376 -74 428 -85 428 -90 1110 -164 1675 -181 273 -9 378 -8 610 6 404 23 622
43 890 82 61 9 146 19 190 23 85 8 440 69 695 119 85 17 202 40 260 52 144 28
543 114 665 144 55 13 168 40 250 59 315 75 1524 379 1765 444 41 12 221 59
400 107 179 47 424 113 545 145 334 89 419 110 487 117 35 3 68 12 73 19 6 8
39 20 75 29 198 48 265 69 287 93 13 14 23 31 23 38 0 12 -1119 14 -6995 14
l-6995 0 0 -34z"/>
<path d="M6950 464 l0 -257 -25 -23 c-14 -13 -25 -32 -25 -44 0 -26 34 -60 60
-60 26 0 60 34 60 60 0 12 -11 31 -25 44 l-25 23 0 257 c0 164 -4 256 -10 256
-6 0 -10 -92 -10 -256z"/>
</g>
</svg>
