<?xml version="1.0" standalone="no"?>
<!DOCTYPE svg PUBLIC "-//W3C//DTD SVG 20010904//EN"
 "http://www.w3.org/TR/2001/REC-SVG-20010904/DTD/svg10.dtd">
<svg version="1.0" xmlns="http://www.w3.org/2000/svg"
 width="1400.000000pt" height="209.000000pt" viewBox="0 0 1400.000000 209.000000"
 preserveAspectRatio="xMidYMid meet">

<g transform="translate(0.000000,209.000000) scale(0.100000,-0.100000)"
fill="#000000" stroke="none">
<path d="M13885 2036 c-49 -12 -97 -25 -105 -29 -28 -12 -756 -208 -1285 -347
-214 -56 -471 -124 -570 -150 -99 -26 -270 -69 -380 -96 -110 -27 -202 -52
-205 -55 -11 -13 -377 -109 -416 -109 -10 0 -99 -20 -198 -44 -510 -124 -665
-161 -931 -220 -249 -55 -559 -117 -910 -181 -683 -125 -1300 -172 -2105 -162
-443 6 -520 10 -905 52 -644 70 -1562 252 -2790 554 -154 38 -343 84 -420 101
-77 18 -196 48 -265 66 -69 18 -199 51 -290 74 -91 22 -293 74 -450 114 -157
40 -364 92 -460 116 -96 23 -197 48 -225 56 -27 7 -131 34 -230 60 -99 25
-295 76 -435 114 -140 37 -267 70 -282 74 l-28 6 0 -1015 0 -1015 7000 0 7000
0 0 1030 c0 818 -3 1030 -12 1029 -7 -1 -53 -11 -103 -23z"/>
</g>
</svg>
