<?xml version="1.0" standalone="no"?>
<!DOCTYPE svg PUBLIC "-//W3C//DTD SVG 20010904//EN"
 "http://www.w3.org/TR/2001/REC-SVG-20010904/DTD/svg10.dtd">
<svg version="1.0" xmlns="http://www.w3.org/2000/svg"
 width="1402.000000pt" height="198.000000pt" viewBox="0 0 1402.000000 198.000000"
 preserveAspectRatio="xMidYMid meet">

<g transform="translate(0.000000,198.000000) scale(0.100000,-0.100000)"
fill="#ffffff" stroke="none">
<path d="M0 990 c0 -653 3 -990 10 -990 7 0 10 290 10 850 0 468 1 850 3 850
2 0 53 -14 113 -31 125 -35 827 -219 1174 -308 129 -33 357 -92 505 -130 1208
-316 2291 -574 2915 -696 184 -35 378 -74 430 -85 427 -90 1110 -164 1675
-181 273 -9 378 -8 610 6 404 23 622 43 890 82 61 9 146 19 190 23 85 8 440
69 695 119 85 17 202 40 260 52 144 28 543 114 665 144 55 13 168 40 250 59
283 68 1498 373 1745 439 30 8 219 58 420 112 201 53 455 121 565 150 311 84
400 105 467 112 35 3 66 11 70 18 8 12 24 17 178 55 47 11 106 28 133 36 l47
16 0 144 0 144 -7010 0 -7010 0 0 -990z"/>
</g>
</svg>
