<?xml version="1.0" standalone="no"?>
<!DOCTYPE svg PUBLIC "-//W3C//DTD SVG 20010904//EN"
 "http://www.w3.org/TR/2001/REC-SVG-20010904/DTD/svg10.dtd">
<svg version="1.0" xmlns="http://www.w3.org/2000/svg"
 width="1396.000000pt" height="210.000000pt" viewBox="0 0 1396.000000 210.000000"
 preserveAspectRatio="xMidYMid meet">

<g transform="translate(0.000000,210.000000) scale(0.100000,-0.100000)"
fill="#ffffff" stroke="none">
<path d="M0 775 l0 -775 6980 0 6980 0 0 775 c0 538 -3 775 -11 775 -17 0
-102 -21 -124 -31 -11 -4 -87 -27 -170 -49 -401 -110 -804 -218 -1140 -305
-203 -54 -426 -112 -495 -131 -196 -52 -608 -154 -625 -154 -8 0 -15 -4 -15
-8 0 -5 -26 -16 -57 -25 -93 -27 -340 -87 -360 -87 -9 0 -89 -18 -178 -40
-787 -194 -1226 -289 -1860 -405 -683 -125 -1300 -172 -2105 -162 -441 6 -503
9 -900 51 -625 66 -1567 253 -2795 555 -154 38 -343 84 -420 101 -77 18 -196
48 -265 66 -171 44 -768 197 -915 234 -66 16 -212 53 -325 81 -113 28 -221 54
-240 59 -32 7 -253 65 -764 200 -103 28 -190 50 -192 50 -2 0 -4 -349 -4 -775z"/>
</g>
</svg>
